<svg width="920" height="920" viewBox="0 0 920 920" fill="none" xmlns="http://www.w3.org/2000/svg">
<rect width="920" height="920" fill="black"/>
<path d="M460.265 274.036C436.445 291.724 430.931 298.251 432.791 306.551C435.182 317.226 468.575 526.765 479.135 597.334C482.389 619.092 486.539 639.295 488.356 642.233C493.504 650.562 554.539 671.111 564.078 667.725C580.321 661.964 589.479 650.225 589.368 635.311C589.31 627.113 576.634 540.416 561.2 442.66C531.07 251.792 531.104 251.902 502.705 251.902C495.229 251.902 477.896 260.939 460.265 274.036Z" fill="#B5B5B5"/>
<path fill-rule="evenodd" clip-rule="evenodd" d="M378.566 309.759C355.672 319.191 355.734 327.365 379.839 481.162C392.26 560.392 405.52 630.094 409.303 636.058C415.068 645.143 420.457 646.896 442.581 646.896C468.208 646.896 468.975 646.511 468.811 633.649C468.714 626.366 457.315 549.954 443.482 463.85L418.322 307.298L403.886 306.286C395.947 305.727 384.553 307.293 378.566 309.759Z" fill="#FB5F15"/>
<path d="M601.955 448.315L611.343 469.638C616.169 480.602 631.456 481.313 637.28 470.845L658.307 433.049C663.799 423.178 677.971 423.102 683.568 432.914L707.154 474.262C712.717 484.014 726.776 484.014 732.339 474.262L755.884 432.985C761.49 423.157 775.691 423.252 781.165 433.154L803.04 472.725C808.631 482.839 823.231 482.665 828.579 472.419L841.162 448.315" stroke="#B5B5B5" stroke-width="16.3096" stroke-linecap="round"/>
<path d="M78.8398 555.837L79.4543 559.484C81.274 570.281 96.8151 570.206 98.5305 559.391L134.075 335.287C135.796 324.441 151.398 324.411 153.161 335.25L189.563 559.093C191.322 569.911 206.883 569.911 208.642 559.093L245.014 335.437C246.778 324.592 262.39 324.63 264.101 335.483L299.492 560.038C301.194 570.835 316.696 570.953 318.562 560.183L337.075 453.326" stroke="#FB5F15" stroke-width="16.3096" stroke-linecap="round"/>
</svg>
